<svg width="600" height="400" viewBox="0 0 600 400" fill="none" xmlns="http://www.w3.org/2000/svg">
  <rect width="600" height="400" rx="32" fill="#F9FAFB"/>
  <rect x="56" y="56" width="488" height="288" rx="24" fill="#111827"/>
  <rect x="96" y="96" width="408" height="220" rx="18" fill="#F97316" opacity="0.95"/>
  <rect x="136" y="136" width="328" height="28" rx="14" fill="#FFFFFF"/>
  <rect x="136" y="176" width="288" height="18" rx="9" fill="#FFFFFF" opacity="0.8"/>
  <rect x="136" y="206" width="260" height="18" rx="9" fill="#FFFFFF" opacity="0.8"/>
  <rect x="136" y="236" width="240" height="18" rx="9" fill="#FFFFFF" opacity="0.8"/>
  <path d="M180 276H260" stroke="#111827" stroke-width="14" stroke-linecap="round"/>
  <path d="M212 276L212 334" stroke="#111827" stroke-width="14" stroke-linecap="round"/>
  <circle cx="406" cy="278" r="46" fill="#FFFFFF"/>
  <path d="M392 266H420C430.493 266 439 274.507 439 285V309C439 319.493 430.493 328 420 328H392C381.507 328 373 319.493 373 309V285C373 274.507 381.507 266 392 266Z" fill="#F97316"/>
  <path d="M402 294H418" stroke="#FFFFFF" stroke-width="10" stroke-linecap="round"/>
  <path d="M410 304V284" stroke="#FFFFFF" stroke-width="10" stroke-linecap="round"/>
</svg>