<svg width="600" height="400" viewBox="0 0 600 400" fill="none" xmlns="http://www.w3.org/2000/svg">
  <rect width="600" height="400" rx="32" fill="#FFFFFF"/>
  <rect x="40" y="40" width="520" height="320" rx="30" fill="#0F172A"/>
  <path d="M98 110H176C188.15 110 198 119.85 198 132V272C198 284.15 188.15 294 176 294H98C85.85 294 76 284.15 76 272V132C76 119.85 85.85 110 98 110Z" fill="#F97316"/>
  <rect x="220" y="126" width="260" height="24" rx="12" fill="#F8FAFC" opacity="0.9"/>
  <rect x="220" y="166" width="175" height="18" rx="9" fill="#F8FAFC" opacity="0.7"/>
  <rect x="220" y="196" width="200" height="18" rx="9" fill="#F8FAFC" opacity="0.7"/>
  <rect x="220" y="226" width="120" height="18" rx="9" fill="#F8FAFC" opacity="0.7"/>
  <path d="M328 278L354 234H396L422 278H328Z" fill="#FBBF24"/>
  <circle cx="146" cy="194" r="42" fill="#FFFFFF"/>
  <path d="M126 198L145 218L176 172" stroke="#0F172A" stroke-width="12" stroke-linecap="round" stroke-linejoin="round"/>
</svg>