<svg width="180" height="180" viewBox="0 0 180 180" fill="none" xmlns="http://www.w3.org/2000/svg">
  <rect width="180" height="180" rx="32" fill="#FFF4E5"/>
  <path d="M60 54C60 44.0589 68.0589 36 78 36H102C111.941 36 120 44.0589 120 54V70C120 79.9411 111.941 88 102 88H78C68.0589 88 60 79.9411 60 70V54Z" fill="#5382A1"/>
  <path d="M100 125C95.5 119 88 112 78 110C68 108 58 112 54 118" stroke="#D94D16" stroke-width="10" stroke-linecap="round"/>
  <path d="M84 70C86 66 90 60 98 58" stroke="#D94D16" stroke-width="10" stroke-linecap="round"/>
  <path d="M88 42C90 34 96 28 104 26" stroke="#D94D16" stroke-width="10" stroke-linecap="round"/>
  <text x="90" y="160" text-anchor="middle" fill="#2D2D2D" font-size="26" font-weight="700" font-family="Arial, sans-serif">Java</text>
</svg>